<?xml version="1.0" encoding="UTF-8"?>
<svg width="322px" height="160px" viewBox="0 0 322 160" version="1.1" xmlns="http://www.w3.org/2000/svg" xmlns:xlink="http://www.w3.org/1999/xlink">
    <!-- Generator: Sketch 54 (76480) - https://sketchapp.com -->
    <title>Logo_haptic_blue_preview@1,5x</title>
    <desc>Created with Sketch.</desc>
    <defs>
        <circle id="path-1" cx="18.1999999" cy="18.1999999" r="18.1999999"></circle>
        <filter x="-31.3%" y="-31.3%" width="162.5%" height="162.5%" filterUnits="objectBoundingBox" id="filter-3">
            <feGaussianBlur stdDeviation="3.90000021" in="SourceGraphic"></feGaussianBlur>
        </filter>
    </defs>
    <g id="Page-1" stroke="none" stroke-width="1" fill="none" fill-rule="evenodd">
        <g id="Media-Kit---XL" transform="translate(-817.000000, -1236.000000)">
            <text id="Job-Des-Copy-3" font-family="Axiforma-SemiBold, Axiforma" font-size="18" font-weight="500" line-spacing="28" fill="#222F4B">
                <tspan x="330" y="1255">Branding / Default — haptic</tspan>
            </text>
            <rect id="Rectangle-Copy-4" stroke="#DAE2EE" x="817.5" y="1236.5" width="321" height="159"></rect>
            <g id="Elemente/Logo/LeanIX-Logo-Farbe" transform="translate(887.000000, 1294.000000)">
                <path d="M73.5924797,32.5000018 L73.5924797,10.2117619 L78.5990396,10.2117619 L78.5990396,27.7347218 L89.6979196,27.7347218 L89.6979196,32.5000018 L73.5924797,32.5000018 Z M108.09552,23.8440818 C108.09552,24.5076018 108.0352,25.1711218 107.94472,25.8346418 L95.7902396,25.8346418 C96.3029596,27.6442418 97.7204796,28.9411218 100.28408,28.9411218 C102.06352,28.9411218 104.1144,28.2474418 105.44144,27.3426418 L107.31136,30.5697618 C105.71288,31.7761618 103.14928,32.8619218 100.07296,32.8619218 C93.8901596,32.8619218 91.0249596,28.6998418 91.0249596,24.2060018 C91.0249596,19.2899218 94.4933596,15.5500819 99.7411995,15.5500819 C104.47632,15.5500819 108.09552,18.5962419 108.09552,23.8440818 Z M99.7411995,19.3804018 C97.8109596,19.3804018 96.3029596,20.5264818 95.7600796,22.4567218 L103.54136,22.4567218 C103.11912,20.5868018 101.73176,19.3804018 99.7411995,19.3804018 Z M123.296159,15.9723219 L127.759839,15.9723219 L127.759839,32.5000018 L123.296159,32.5000018 L123.296159,30.8110418 C122.089759,32.0174418 120.461119,32.9222418 118.199119,32.9222418 C113.433839,32.9222418 110.055919,29.0617618 110.055919,24.1456818 C110.055919,19.1994418 113.524319,15.5500819 118.199119,15.5500819 C120.430959,15.5500819 122.089759,16.4850419 123.296159,17.7216019 L123.296159,15.9723219 Z M119.013439,28.6093618 C121.516719,28.6093618 123.296159,26.5886418 123.296159,24.2060018 C123.296159,21.8535218 121.516719,19.8629618 119.013439,19.8629618 C116.510159,19.8629618 114.791039,21.8535218 114.791039,24.2060018 C114.791039,26.6188018 116.540319,28.6093618 119.013439,28.6093618 Z M131.409199,32.5000018 L131.409199,15.9723219 L136.023679,15.9723219 L136.023679,18.2644819 C136.837999,16.7866419 138.738079,15.5199219 141.241359,15.5199219 C144.528799,15.5199219 147.665439,17.7216019 147.665439,22.3964018 L147.665439,32.5000018 L142.930319,32.5000018 L142.930319,23.6329618 C142.930319,21.1900018 141.633439,19.8629618 139.703199,19.8629618 C137.591999,19.8629618 136.144319,21.4312818 136.144319,23.7536018 L136.144319,32.5000018 L131.409199,32.5000018 Z M151.616399,10.2117619 L156.622959,10.2117619 L156.622959,32.5000018 L151.616399,32.5000018 L151.616399,10.2117619 Z M159.065919,32.5000018 L166.093199,21.2503218 L159.578639,10.2117619 L165.339199,10.2117619 L169.320319,17.4803219 L173.542719,10.2117619 L179.363599,10.2117619 L172.456959,21.2503218 L179.303279,32.5000018 L173.542719,32.5000018 L169.259999,25.0203218 L164.886799,32.5000018 L159.065919,32.5000018 Z" id="LeanIX" fill="#222F4B" fill-rule="nonzero"></path>
                <g id="Rectangle-Copy-5" stroke-width="1" fill-rule="evenodd" transform="translate(18.720000, 3.640000)">
                    <mask id="mask-2" fill="white">
                        <use xlink:href="#path-1"></use>
                    </mask>
                    <use id="Mask" fill="#166BFF" xlink:href="#path-1"></use>
                    <polygon id="Rectangle-Copy-2" fill-opacity="0.65" fill="#003399" filter="url(#filter-3)" mask="url(#mask-2)" points="-12.7399999 21.8399999 5.98000005 3.11999999 24.7 21.8399999 5.98000005 40.5599998"></polygon>
                </g>
                <polygon id="Rectangle-Copy-6" fill="#166BFF" fill-rule="evenodd" points="0 21.8399999 18.7199999 3.11999999 37.4399998 21.8399999 18.7199999 40.5599998"></polygon>
                <path d="M24.2212257,34.8399998 C20.8275808,31.5435896 18.7199999,26.9372091 18.7199999,21.8399999 C18.7199999,16.7427907 20.8275808,12.1364102 24.2212257,8.83999996 L37.4399998,21.8399999 L24.2212257,34.8399998 Z" id="Combined-Shape-Copy-4" fill="#FFFFFF" fill-rule="evenodd"></path>
            </g>
        </g>
    </g>
</svg>